<svg width="40" height="40" viewBox="0 0 40 40" fill="none" xmlns="http://www.w3.org/2000/svg">
<g id="ci:apple">
<path id="Vector" d="M15.1568 35.01C14.1088 34.9532 13.1226 34.4962 12.4018 33.7333C11.5394 32.9037 10.7699 31.9827 10.1068 30.9867C9.07092 29.5033 8.25211 27.8797 7.67513 26.165C7.02213 24.3202 6.67861 22.3802 6.65846 20.4233C6.60773 18.5033 7.08322 16.6059 8.03346 14.9367C8.72941 13.7335 9.7221 12.7288 10.9168 12.0183C12.0983 11.3109 13.4465 10.9302 14.8235 10.915C15.8615 10.9764 16.8815 11.2137 17.8401 11.6167C18.6051 11.9533 19.4085 12.19 20.2335 12.32C21.1435 12.1294 22.0327 11.8503 22.8885 11.4867C23.9012 11.0912 24.9736 10.8698 26.0601 10.8317C26.2051 10.8317 26.3485 10.8317 26.4868 10.8483C28.8701 10.9167 31.0868 12.0867 32.4868 14.015C31.3942 14.5994 30.485 15.4753 29.8604 16.5454C29.2357 17.6155 28.92 18.8379 28.9485 20.0767C28.9376 21.0239 29.1275 21.9627 29.5059 22.8311C29.8842 23.6996 30.4424 24.478 31.1435 25.115C31.7817 25.7229 32.5248 26.2102 33.3368 26.5533C33.1701 27.0533 32.9785 27.5367 32.7751 28.0233C32.3135 29.0988 31.7439 30.1246 31.0751 31.085C30.4428 32.0471 29.7067 32.9369 28.8801 33.7383C28.1262 34.4865 27.1211 34.9278 26.0601 34.9767C25.1607 34.9368 24.2772 34.7258 23.4568 34.355C22.5721 33.9696 21.6214 33.7585 20.6568 33.7333C19.665 33.7529 18.6861 33.9628 17.7735 34.3517C16.9852 34.7073 16.143 34.9287 15.2818 35.0067L15.1568 35.01ZM20.4068 10.8317C20.2818 10.8317 20.1568 10.8317 20.0318 10.8167C20.0055 10.6183 19.9916 10.4184 19.9901 10.2183C20.0446 8.55355 20.6952 6.96372 21.8235 5.73833C22.4545 5.03409 23.2193 4.46244 24.0735 4.05667C24.8694 3.64692 25.7392 3.40043 26.6318 3.33167C26.6568 3.55 26.6568 3.76333 26.6568 3.96667C26.6334 5.60528 26.0177 7.18004 24.9235 8.4C24.3937 9.11037 23.7148 9.69616 22.9345 10.1162C22.1543 10.5363 21.2915 10.7805 20.4068 10.8317Z" fill="black"/>
</g>
</svg>
