<svg width="29" height="24" viewBox="0 0 29 24" fill="none" xmlns="http://www.w3.org/2000/svg">
<g id="ant-design:eye-invisible-filled">
<path id="Vector" d="M14.3867 14.6251C15.228 14.6251 16.0347 14.3485 16.6296 13.8562C17.2244 13.3639 17.5586 12.6963 17.5586 12.0001C17.5586 11.9232 17.5544 11.847 17.5464 11.7718L14.1109 14.615C14.2018 14.6216 14.2936 14.6251 14.3867 14.6251ZM24.8856 3.88038L23.6758 2.88007C23.6333 2.84493 23.5757 2.8252 23.5156 2.8252C23.4556 2.8252 23.398 2.84493 23.3555 2.88007L20.2595 5.44296C18.5516 4.72062 16.6318 4.35944 14.5 4.35944C9.05685 4.35944 4.99571 6.70554 2.31661 11.3977C2.20893 11.5864 2.15308 11.7925 2.15308 12.0012C2.15308 12.2099 2.20893 12.416 2.31661 12.6048C3.38712 14.4708 4.67617 15.9666 6.18375 17.0919L3.18775 19.5704C3.14529 19.6055 3.12144 19.6532 3.12144 19.7029C3.12144 19.7526 3.14529 19.8003 3.18775 19.8355L4.39674 20.836C4.43922 20.8711 4.49683 20.8909 4.55689 20.8909C4.61695 20.8909 4.67456 20.8711 4.71704 20.836L24.8856 4.14569C24.9067 4.12828 24.9234 4.1076 24.9348 4.08484C24.9462 4.06208 24.9521 4.03768 24.9521 4.01304C24.9521 3.9884 24.9462 3.964 24.9348 3.94124C24.9234 3.91847 24.9067 3.8978 24.8856 3.88038ZM9.40235 12.0001C9.40228 11.2876 9.62519 10.5872 10.0494 9.96723C10.4736 9.34723 11.0846 8.82873 11.8229 8.46225C12.5612 8.09576 13.4016 7.89378 14.2622 7.87598C15.1229 7.85818 15.9744 8.02518 16.7339 8.36069L15.357 9.50022C14.8017 9.35307 14.2081 9.33535 13.6415 9.449C13.0748 9.56265 12.5569 9.80329 12.1446 10.1445C11.7323 10.4857 11.4415 10.9143 11.3042 11.3833C11.1669 11.8523 11.1883 12.3435 11.3661 12.803L9.98915 13.9426C9.60275 13.3451 9.40115 12.6777 9.40235 12.0001Z" fill="#8B8B8B"/>
<path id="Vector_2" d="M26.6834 11.3954C25.6865 9.65791 24.5 8.24111 23.1238 7.14502L19.0417 10.5235C19.3858 11.2679 19.4621 12.0789 19.2613 12.8584C19.0605 13.6379 18.5913 14.3526 17.9103 14.9162C17.2293 15.4798 16.3657 15.8681 15.4238 16.0343C14.4819 16.2004 13.502 16.1373 12.6025 15.8525L9.14008 18.718C10.7464 19.3331 12.533 19.6407 14.5 19.6407C19.9431 19.6407 24.0043 17.2946 26.6834 12.6024C26.7911 12.4137 26.8469 12.2076 26.8469 11.9989C26.8469 11.7902 26.7911 11.5841 26.6834 11.3954Z" fill="#8B8B8B"/>
</g>
</svg>
